<svg width="193" height="28" fill="none" xmlns="http://www.w3.org/2000/svg"><path d="M183.11 25.5759C176.742 25.5759 172.71 22.6319 172.55 17.4799H178.054C178.342 20.0719 180.038 21.2239 183.11 21.2239C185.222 21.2239 187.206 20.3919 187.206 18.4399C187.206 16.3599 185.19 15.9119 181.734 15.1119C177.094 14.0559 173.318 12.9039 173.318 7.94388C173.318 3.01588 177.35 0.775879 182.598 0.775879C187.846 0.775879 191.558 3.20788 191.91 7.87988H186.566C186.278 6.02388 184.806 4.93588 182.438 4.93588C180.198 4.93588 178.694 5.89588 178.694 7.39988C178.694 9.25588 180.742 9.67188 184.486 10.5039C188.774 11.4639 192.71 12.8719 192.71 17.8959C192.71 22.8239 188.55 25.5759 183.11 25.5759Z" fill="#FDE465"/><path d="M158.987 25.5759C151.755 25.5759 147.211 20.2959 147.211 13.1919C147.211 6.05588 151.755 0.775879 158.987 0.775879C166.187 0.775879 170.731 6.05588 170.731 13.1919C170.731 20.2959 166.187 25.5759 158.987 25.5759ZM159.019 21.0959C163.115 21.0959 165.163 17.6719 165.163 13.1919C165.163 8.67988 163.115 5.19188 159.019 5.19188C154.891 5.19188 152.779 8.67988 152.779 13.1919C152.779 17.6719 154.891 21.0959 159.019 21.0959Z" fill="#FDE465"/><path d="M140.838 24.9999L140.39 21.7999H140.294C138.886 24.4239 136.358 25.5439 133.446 25.5439C130.054 25.5439 127.302 24.2959 125.35 22.2159C123.27 19.9759 122.182 16.8399 122.182 13.1919C122.182 9.12788 123.654 5.57588 126.31 3.33588C128.23 1.70388 130.694 0.775879 133.83 0.775879C139.846 0.775879 143.366 3.97588 144.23 8.51988H138.79C138.214 6.75988 136.71 5.28788 133.99 5.28788C129.766 5.28788 127.718 8.71188 127.718 13.1919C127.718 17.7679 130.15 21.0959 134.054 21.0959C137.414 21.0959 139.43 18.8239 139.462 16.4239V16.3279H134.662V12.2639H144.614V24.9999H140.838Z" fill="#FDE465"/><path d="M108.331 25.5759C101.099 25.5759 96.5552 20.2959 96.5552 13.1919C96.5552 6.05588 101.099 0.775879 108.331 0.775879C115.531 0.775879 120.075 6.05588 120.075 13.1919C120.075 20.2959 115.531 25.5759 108.331 25.5759ZM108.363 21.0959C112.459 21.0959 114.507 17.6719 114.507 13.1919C114.507 8.67988 112.459 5.19188 108.363 5.19188C104.235 5.19188 102.123 8.67988 102.123 13.1919C102.123 17.6719 104.235 21.0959 108.363 21.0959Z" fill="#FDE465"/><path d="M78.8599 24.9999V1.19189H84.2999V20.3279H95.2759V24.9999H78.8599Z" fill="#FDE465"/><path d="M65.7377 27.0159L62.4737 24.0079C60.7777 24.9999 58.6977 25.5759 56.3617 25.5759C49.1297 25.5759 44.6177 20.2959 44.6177 13.1919C44.6177 6.05588 49.1297 0.775879 56.3617 0.775879C63.5937 0.775879 68.0737 6.05588 68.0737 13.1919C68.0737 16.6159 67.0497 19.5599 65.1617 21.7679L68.1057 24.4559L65.7377 27.0159ZM56.3937 21.1919C57.3537 21.1919 58.1857 21.0319 58.9217 20.7119L56.0417 18.0559L58.4097 15.4959L61.4497 18.3119C62.1857 16.9679 62.5377 15.2079 62.5377 13.1919C62.5377 8.67988 60.4897 5.19188 56.3937 5.19188C52.2657 5.19188 50.1857 8.67988 50.1857 13.1919C50.1857 17.6719 52.2657 21.1919 56.3937 21.1919Z" fill="#FDE465"/><path d="M22.8911 24.9999V1.19189H34.1551C36.6191 1.19189 38.5071 1.76789 39.7231 2.82389C41.0351 3.97589 41.7391 5.47989 41.7391 7.3679C41.7391 9.73589 40.4591 11.3359 37.8991 12.1359V12.2639C40.9711 12.9999 42.6671 15.1439 42.6671 18.0559C42.6671 20.3279 41.8351 22.0559 40.3311 23.2399C38.9231 24.3919 36.9711 24.9999 34.4431 24.9999H22.8911ZM28.2991 10.7599H33.3871C35.2431 10.7599 36.4911 9.86389 36.4911 8.1039C36.4911 6.37589 35.3071 5.41589 33.4511 5.41589H28.2991V10.7599ZM28.2991 20.7119H33.8671C34.9551 20.7119 35.8191 20.3919 36.3951 19.8479C36.9391 19.3359 37.2591 18.5679 37.2591 17.6719C37.2591 15.5919 35.7551 14.5679 33.7711 14.5679H28.2991V20.7119Z" fill="#FDE465"/><path d="M0.172363 24.9999V1.19189H11.4364C13.9004 1.19189 15.7884 1.76789 17.0044 2.82389C18.3164 3.97589 19.0204 5.47989 19.0204 7.3679C19.0204 9.73589 17.7404 11.3359 15.1804 12.1359V12.2639C18.2524 12.9999 19.9484 15.1439 19.9484 18.0559C19.9484 20.3279 19.1164 22.0559 17.6124 23.2399C16.2044 24.3919 14.2524 24.9999 11.7244 24.9999H0.172363ZM5.58036 10.7599H10.6684C12.5244 10.7599 13.7724 9.86389 13.7724 8.1039C13.7724 6.37589 12.5884 5.41589 10.7324 5.41589H5.58036V10.7599ZM5.58036 20.7119H11.1484C12.2364 20.7119 13.1004 20.3919 13.6764 19.8479C14.2204 19.3359 14.5404 18.5679 14.5404 17.6719C14.5404 15.5919 13.0364 14.5679 11.0524 14.5679H5.58036V20.7119Z" fill="#FDE465"/></svg>